<svg width="71" height="86" viewBox="0 0 71 86" fill="none" xmlns="http://www.w3.org/2000/svg">
<path d="M55.0249 62.4971L60.4334 74.9882L50.0671 74.6663L43.1132 82.2639L39.25 73.4429" stroke="#FF7A00" stroke-width="4"/>
<path d="M34.0992 67.9054L28.24 82.2637L21.1574 74.7948L10.8555 75.3099L14.1392 67.0684" stroke="#FF7A00" stroke-width="4"/>
<path d="M69 35.3255C69 36.9996 65.9094 38.4161 65.6519 40.0258C65.3943 41.6998 67.9054 43.9534 67.3903 45.5631C66.8752 47.1727 63.4627 47.5591 62.7544 49.04C61.9818 50.5209 63.6559 53.4827 62.6901 54.8348C61.7243 56.1869 58.3761 55.5431 57.1528 56.702C55.9938 57.861 56.6377 61.2092 55.2855 62.175C53.9334 63.1408 50.9716 61.5311 49.4907 62.2393C48.0098 63.012 47.6235 66.3601 46.0138 66.8752C44.4685 67.3903 42.1505 64.9436 40.4765 65.2012C38.8668 65.4587 37.3859 68.4849 35.7118 68.4849C34.0377 68.4849 32.5568 65.3943 30.9472 65.2012C29.2731 64.9436 26.9552 67.3903 25.4099 66.8752C23.8002 66.3601 23.4139 63.012 21.933 62.2393C20.452 61.4667 17.4902 63.1408 16.1381 62.175C14.786 61.2092 15.4298 57.861 14.2709 56.702C13.1119 55.5431 9.76377 56.1869 8.73358 54.8348C7.76777 53.4827 9.37745 50.5209 8.66919 49.04C7.89654 47.5591 4.54841 47.1727 4.03331 45.5631C3.51821 44.0178 6.02931 41.6998 5.77177 40.0258C5.32105 38.4161 2.23047 36.9996 2.23047 35.3255C2.23047 33.6514 5.32105 32.2349 5.5786 30.6252C5.83615 28.9512 3.32505 26.6976 3.84015 25.0879C4.35525 23.4782 7.76777 23.0919 8.47603 21.611C9.24867 20.1301 7.57461 17.1683 8.54042 15.8162C9.50622 14.464 12.8544 15.1079 14.0777 13.9489C15.2367 12.79 14.5928 9.44184 15.9449 8.47603C17.2971 7.51022 20.2589 9.1199 21.7398 8.41164C23.2207 7.63899 23.607 4.29086 25.2167 3.77576C26.762 3.26066 29.0799 5.70738 30.754 5.44983C32.4925 5.32105 33.909 2.23047 35.6474 2.23047C37.3215 2.23047 38.8024 5.32105 40.4121 5.51422C42.0862 5.77177 44.4041 3.32505 45.9494 3.84015C47.5591 4.35525 47.9454 7.70338 49.4263 8.47603C50.9072 9.24867 53.869 7.57461 55.2211 8.54042C56.5733 9.50622 55.9294 12.8544 57.0884 14.0133C58.2473 15.1723 61.5955 14.5284 62.6257 15.8806C63.5915 17.2327 61.9818 20.1945 62.6901 21.6754C63.4627 23.1563 66.8108 23.5426 67.3259 25.1523C67.841 26.6976 65.3299 29.0155 65.5875 30.6896C65.9094 32.2349 69 33.6514 69 35.3255Z" stroke="#FF7A00" stroke-width="4"/>
<path d="M57.2799 35.3257C57.2799 47.173 47.6218 56.7666 35.6458 56.7666C23.6698 56.7666 14.0117 47.173 14.0117 35.3257C14.0117 23.4785 23.6698 13.8848 35.6458 13.8848C47.5575 13.8848 57.2799 23.4785 57.2799 35.3257Z" stroke="#FF7A00" stroke-width="4"/>
<path d="M35.6449 26.1826L38.4779 31.8487L44.8522 32.8145L40.2164 37.2572L41.3109 43.5028L35.6449 40.541L29.9144 43.5028L31.009 37.2572L26.4375 32.8145L32.8118 31.8487L35.6449 26.1826Z" stroke="#FF7A00" stroke-width="4"/>
</svg>
