<svg width="16" height="20" viewBox="0 0 16 20" fill="none" xmlns="http://www.w3.org/2000/svg">
<path d="M15 6L16 6C16 5.73478 15.8946 5.48043 15.7071 5.29289L15 6ZM10 1L10.7071 0.292893C10.5196 0.105357 10.2652 -2.06964e-07 10 -2.18557e-07L10 1ZM10 6L9 6L9 7L10 7L10 6ZM15 18L16 18L15 18ZM2 20L14 20L14 18L2 18L2 20ZM-4.37114e-08 2L-7.43094e-07 18L2 18L2 2L-4.37114e-08 2ZM16 18L16 6L14 6L14 18L16 18ZM10 -2.18557e-07L2 -5.68248e-07L2 2L10 2L10 -2.18557e-07ZM15.7071 5.29289L10.7071 0.292893L9.29289 1.70711L14.2929 6.70711L15.7071 5.29289ZM9 1L9 6L11 6L11 1L9 1ZM10 7L15 7L15 5L10 5L10 7ZM4 11L12 11L12 9L4 9L4 11ZM4 15L12 15L12 13L4 13L4 15ZM14 20C15.1046 20 16 19.1046 16 18L14 18L14 18L14 20ZM2 18L-7.43094e-07 18C-7.91376e-07 19.1046 0.895429 20 2 20L2 18ZM2 2L2 -5.68248e-07C0.895431 -6.1653e-07 4.57087e-09 0.89543 -4.37114e-08 2L2 2Z" fill="#FF7A00"/>
</svg>
