<svg width="82" height="82" viewBox="0 0 82 82" fill="none" xmlns="http://www.w3.org/2000/svg">
<path d="M64.9375 18.8455V12.9378C64.9375 9.92246 67.399 7.52246 70.4144 7.52246C73.4298 7.52246 75.8913 9.92246 75.8913 12.9378V18.8455H64.9375Z" stroke="#FF7A00" stroke-width="4" stroke-linejoin="round"/>
<path d="M52.0742 7.52246C53.5511 7.52246 67.3358 7.52246 69.7358 7.52246C67.0281 7.83015 64.9358 10.1071 64.9358 12.8763V31.8301" stroke="#FF7A00" stroke-width="4" stroke-linejoin="round"/>
<path d="M14 70.3908L14 70.9995L14 65.9995" stroke="#FF7A00" stroke-width="4" stroke-linejoin="round"/>
<path d="M64.9374 68.6299V73.4914V74.4145C64.9374 77.1837 62.8451 79.4607 60.1374 79.7683C58.6605 79.7683 11.8297 79.7683 9.42969 79.7683" stroke="#FF7A00" stroke-width="4" stroke-linejoin="round"/>
<path d="M54.9069 71.6455V74.3532C54.9069 77.1224 56.9992 79.3994 59.7069 79.707C57.3069 79.707 10.4761 79.707 8.99922 79.707C6.29153 79.3994 4.19922 77.1224 4.19922 74.3532V71.6455H54.9069Z" stroke="#FF7A00" stroke-width="4" stroke-linejoin="round"/>
<path d="M64.9375 12.9378C64.9375 9.92246 67.399 7.52246 70.4144 7.52246C73.4298 7.52246 75.8913 9.92246 75.8913 12.9378V20.5071" stroke="#FF7A00" stroke-width="4" stroke-linejoin="round"/>
<path d="M54.9062 69.9839V74.3531C54.9062 77.1224 57.3678 79.707 60.0139 79.707" stroke="#FF7A00" stroke-width="4" stroke-linejoin="round"/>
<path d="M46.2305 60.7535C46.2305 61.1228 45.9228 61.4305 45.5535 61.4305H2.90739C2.53816 61.4305 2.23047 61.1228 2.23047 60.7535V2.90739C2.23047 2.53816 2.53816 2.23047 2.90739 2.23047H45.492C45.8612 2.23047 46.1689 2.53816 46.1689 2.90739V60.7535H46.2305Z" stroke="#FF7A00" stroke-width="4" stroke-linejoin="round"/>
<path d="M46.2305 9.98438V54.1075C46.2305 54.4767 45.9228 54.7844 45.5535 54.7844H2.90739C2.53816 54.7844 2.23047 54.4767 2.23047 54.1075V9.98438" stroke="#FF7A00" stroke-width="4" stroke-linejoin="round"/>
<path d="M39.3365 11.1533H9.12109V18.7841H39.3365V11.1533Z" stroke="#FF7A00" stroke-width="4" stroke-linejoin="round"/>
<path d="M7.83203 26.5381H13.3705" stroke="#FF7A00" stroke-width="4" stroke-linejoin="round"/>
<path d="M16.9414 26.5381H22.4799" stroke="#FF7A00" stroke-width="4" stroke-linejoin="round"/>
<path d="M25.9844 26.5381H31.5228" stroke="#FF7A00" stroke-width="4" stroke-linejoin="round"/>
<path d="M35.0312 26.5381H40.5697" stroke="#FF7A00" stroke-width="4" stroke-linejoin="round"/>
<path d="M7.83203 33.3691H13.3705" stroke="#FF7A00" stroke-width="4" stroke-linejoin="round"/>
<path d="M16.9414 33.3691H22.4799" stroke="#FF7A00" stroke-width="4" stroke-linejoin="round"/>
<path d="M25.9844 33.3691H31.5228" stroke="#FF7A00" stroke-width="4" stroke-linejoin="round"/>
<path d="M35.0312 33.3691H40.5697" stroke="#FF7A00" stroke-width="4" stroke-linejoin="round"/>
<path d="M7.83203 40.1382H13.3705" stroke="#FF7A00" stroke-width="4" stroke-linejoin="round"/>
<path d="M16.9414 40.1382H22.4799" stroke="#FF7A00" stroke-width="4" stroke-linejoin="round"/>
<path d="M25.9844 40.1382H31.5228" stroke="#FF7A00" stroke-width="4" stroke-linejoin="round"/>
<path d="M35.0312 40.1382H40.5697" stroke="#FF7A00" stroke-width="4" stroke-linejoin="round"/>
<path d="M7.83203 46.9688H13.3705" stroke="#FF7A00" stroke-width="4" stroke-linejoin="round"/>
<path d="M16.9414 46.9688H22.4799" stroke="#FF7A00" stroke-width="4" stroke-linejoin="round"/>
<path d="M25.9844 46.9688H31.5228" stroke="#FF7A00" stroke-width="4" stroke-linejoin="round"/>
<path d="M35.0312 46.9688H40.5697" stroke="#FF7A00" stroke-width="4" stroke-linejoin="round"/>
<path d="M78.1061 50.7845C78.1061 58.046 72.1984 63.9537 64.8753 63.9537C57.5522 63.9537 51.6445 58.046 51.6445 50.7845C51.6445 43.5229 57.5522 37.6152 64.8753 37.6152C72.1368 37.5537 78.1061 43.4614 78.1061 50.7845Z" stroke="#FF7A00" stroke-width="4" stroke-linejoin="round"/>
<path d="M64.8135 56.0772V43.8926L60.6289 48.2618" stroke="#FF7A00" stroke-width="4" stroke-linejoin="round"/>
<path d="M61.9219 56.0156H67.645" stroke="#FF7A00" stroke-width="4" stroke-linejoin="round"/>
<path d="M75.8906 24.877V35.4616" stroke="#FF7A00" stroke-width="4" stroke-linejoin="round"/>
<path d="M81.2438 30.1689H70.5977" stroke="#FF7A00" stroke-width="4" stroke-linejoin="round"/>
</svg>
