<svg width="330" height="59" viewBox="0 0 330 59" fill="none" xmlns="http://www.w3.org/2000/svg">
<path d="M96.0888 29.2879C99.2684 30.7331 100.858 33.3185 100.858 37.044C100.858 40.3199 99.6859 42.8893 97.3414 44.752C95.029 46.6148 91.8494 47.5462 87.8027 47.5462C83.7881 47.5462 80.4962 46.5666 77.9268 44.6075C75.3575 42.6163 73.9765 39.7579 73.7838 36.0324H82.0699C82.2626 37.3813 82.7925 38.3448 83.6597 38.9229C84.5589 39.4689 85.8757 39.7418 87.61 39.7418C89.4407 39.7418 90.7253 39.4528 91.464 38.8747C92.2027 38.2645 92.572 37.3813 92.572 36.2251C92.572 35.2295 92.2348 34.5229 91.5604 34.1054C90.918 33.6557 89.7458 33.4309 88.0436 33.4309H83.3706V26.301H87.2728C88.6859 26.301 89.7618 26.1244 90.5005 25.7711C91.2392 25.3857 91.6085 24.6952 91.6085 23.6996C91.6085 21.4835 90.083 20.3755 87.0319 20.3755C85.5867 20.3755 84.4947 20.6324 83.756 21.1463C83.0173 21.628 82.5356 22.4952 82.3108 23.7477H74.0247C74.2495 20.1828 75.5663 17.4368 77.975 15.5098C80.4159 13.5507 83.5151 12.5711 87.2728 12.5711C91.0625 12.5711 94.1136 13.5186 96.426 15.4135C98.7384 17.2762 99.8946 19.6689 99.8946 22.5915C99.8946 24.0047 99.5413 25.3054 98.8348 26.4937C98.1603 27.682 97.245 28.6134 96.0888 29.2879ZM135.777 39.1156H140.595V53.4235H132.405V46.9199H111.93V53.4235H103.741V39.1156H108.462C109.008 38.5054 109.425 37.3652 109.714 35.6951L113.279 13.1974H135.777V39.1156ZM117.76 36.5141C117.663 37.2207 117.487 38.0878 117.23 39.1156H127.587V21.0018H120.217L117.76 36.5141ZM161.475 47.5462C156.433 47.5462 152.258 45.8761 148.95 42.536C145.642 39.1959 143.988 35.0368 143.988 30.0587C143.988 25.0806 145.642 20.9215 148.95 17.5813C152.258 14.2412 156.433 12.5711 161.475 12.5711C165.554 12.5711 169.071 13.7273 172.025 16.0397C175.012 18.3521 176.971 21.3711 177.903 25.0966H169.135C168.46 23.6193 167.449 22.4631 166.1 21.628C164.783 20.793 163.241 20.3755 161.475 20.3755C158.713 20.3755 156.481 21.2748 154.779 23.0733C153.109 24.8718 152.274 27.2003 152.274 30.0587C152.274 32.9171 153.109 35.2455 154.779 37.044C156.481 38.8426 158.713 39.7418 161.475 39.7418C163.241 39.7418 164.783 39.3243 166.1 38.4893C167.449 37.6543 168.46 36.4981 169.135 35.0207H177.903C176.971 38.7462 175.012 41.7652 172.025 44.0776C169.071 46.39 165.554 47.5462 161.475 47.5462ZM212.646 46.9199H202.432L191.16 31.6484V46.9199H182.97V13.1974H191.16V27.5536L201.71 13.1974H211.778L199.638 29.4806L212.646 46.9199Z" fill="white"/>
<path d="M231.552 14.1472V22.1562H229.916V15.7032H226.357V22.1562H224.721V14.1472H226.357H231.552ZM236.643 15.7261C237.46 15.7261 238.142 16.035 238.692 16.6529C239.241 17.2631 239.515 18.0487 239.515 19.0098C239.515 19.9709 239.241 20.7604 238.692 21.3782C238.15 21.9884 237.467 22.2935 236.643 22.2935C235.812 22.2935 235.148 21.9656 234.653 21.3096V25.0166H233.017V15.8634H234.653V16.7444C235.141 16.0655 235.804 15.7261 236.643 15.7261ZM236.266 20.7375C236.724 20.7375 237.101 20.5773 237.399 20.257C237.704 19.9366 237.856 19.5209 237.856 19.0098C237.856 18.4988 237.708 18.0831 237.41 17.7627C237.113 17.4423 236.731 17.2821 236.266 17.2821C235.801 17.2821 235.415 17.4423 235.11 17.7627C234.805 18.0831 234.653 18.4988 234.653 19.0098C234.653 19.5209 234.805 19.9366 235.11 20.257C235.415 20.5773 235.801 20.7375 236.266 20.7375ZM241.344 16.6643C241.977 16.0388 242.752 15.7261 243.667 15.7261C244.582 15.7261 245.356 16.0388 245.99 16.6643C246.63 17.2898 246.951 18.0716 246.951 19.0098C246.951 19.9557 246.634 20.7413 246.001 21.3668C245.376 21.9846 244.597 22.2935 243.667 22.2935C242.744 22.2935 241.966 21.9808 241.333 21.3553C240.707 20.7299 240.395 19.948 240.395 19.0098C240.395 18.0716 240.711 17.2898 241.344 16.6643ZM244.823 17.7627C244.517 17.4423 244.132 17.2821 243.667 17.2821C243.202 17.2821 242.813 17.4423 242.5 17.7627C242.195 18.0831 242.042 18.4988 242.042 19.0098C242.042 19.5209 242.195 19.9366 242.5 20.257C242.813 20.5773 243.202 20.7375 243.667 20.7375C244.132 20.7375 244.517 20.5773 244.823 20.257C245.135 19.9366 245.292 19.5209 245.292 19.0098C245.292 18.4988 245.135 18.0831 244.823 17.7627ZM252.124 15.8634H254V22.1562H252.364V19.9251L252.467 18.0602L249.87 22.1562H247.982V15.8634H249.618V18.0945L249.538 19.9366L252.124 15.8634ZM259.82 18.8268C260.476 19.0937 260.804 19.601 260.804 20.3485C260.804 20.974 260.548 21.4545 260.037 21.7901C259.526 22.1257 258.844 22.2935 257.989 22.2935C256.197 22.2935 255.167 21.5422 254.9 20.0396H256.559C256.62 20.4057 256.761 20.665 256.982 20.8176C257.211 20.9701 257.535 21.0464 257.955 21.0464C258.748 21.0464 259.145 20.7756 259.145 20.2341C259.145 19.784 258.84 19.559 258.23 19.559H257.177V18.3004H258.058C258.386 18.3004 258.615 18.2509 258.744 18.1517C258.882 18.0525 258.95 17.8962 258.95 17.6826C258.95 17.1868 258.592 16.9389 257.875 16.9389C257.188 16.9389 256.792 17.2097 256.685 17.7512H255.026C255.278 16.4011 256.235 15.7261 257.898 15.7261C258.706 15.7261 259.358 15.8863 259.854 16.2066C260.35 16.527 260.598 16.9809 260.598 17.5682C260.598 18.1479 260.339 18.5674 259.82 18.8268ZM266.239 18.7581C266.994 18.9793 267.371 19.5056 267.371 20.337C267.371 20.9549 267.162 21.4125 266.742 21.71C266.323 22.0075 265.77 22.1562 265.083 22.1562H261.754V15.8634H264.797C265.499 15.8634 266.048 15.9816 266.445 16.2181C266.849 16.4545 267.051 16.8664 267.051 17.4538C267.051 17.7589 266.982 18.0106 266.845 18.2089C266.708 18.3996 266.506 18.5827 266.239 18.7581ZM265.403 17.7627C265.403 17.5491 265.346 17.3927 265.232 17.2936C265.125 17.1944 264.934 17.1448 264.66 17.1448H263.39V18.3577H264.66C264.934 18.3577 265.125 18.3119 265.232 18.2204C265.346 18.1212 265.403 17.9686 265.403 17.7627ZM264.957 20.8748C265.232 20.8748 265.426 20.8214 265.541 20.7146C265.655 20.6002 265.712 20.4248 265.712 20.1883C265.712 19.9595 265.651 19.7917 265.529 19.6849C265.415 19.5781 265.224 19.5247 264.957 19.5247H263.39V20.8748H264.957ZM269.133 16.6643C269.766 16.0388 270.54 15.7261 271.456 15.7261C272.371 15.7261 273.145 16.0388 273.778 16.6643C274.419 17.2898 274.739 18.0716 274.739 19.0098C274.739 19.9557 274.423 20.7413 273.79 21.3668C273.164 21.9846 272.386 22.2935 271.456 22.2935C270.533 22.2935 269.755 21.9808 269.122 21.3553C268.496 20.7299 268.183 19.948 268.183 19.0098C268.183 18.0716 268.5 17.2898 269.133 16.6643ZM272.611 17.7627C272.306 17.4423 271.921 17.2821 271.456 17.2821C270.99 17.2821 270.601 17.4423 270.289 17.7627C269.983 18.0831 269.831 18.4988 269.831 19.0098C269.831 19.5209 269.983 19.9366 270.289 20.257C270.601 20.5773 270.99 20.7375 271.456 20.7375C271.921 20.7375 272.306 20.5773 272.611 20.257C272.924 19.9366 273.08 19.5209 273.08 19.0098C273.08 18.4988 272.924 18.0831 272.611 17.7627ZM281.911 20.6116H283.055V23.7466H281.419V22.1562H276.694V23.7466H275.058V20.6116H276.179C276.385 20.4362 276.537 20.0396 276.636 19.4217L277.209 15.8634H281.911V20.6116ZM277.907 20.6116H280.275V17.408H278.604L278.261 19.5018C278.185 19.99 278.067 20.3599 277.907 20.6116ZM286.881 22.2935C285.942 22.2935 285.161 21.9808 284.535 21.3553C283.917 20.7299 283.608 19.948 283.608 19.0098C283.608 18.0716 283.917 17.2898 284.535 16.6643C285.161 16.0388 285.946 15.7261 286.892 15.7261C287.685 15.7261 288.376 15.9549 288.963 16.4126C289.558 16.8626 289.913 17.4767 290.027 18.2547H288.345C288.254 17.9267 288.074 17.675 287.807 17.4995C287.548 17.3241 287.243 17.2364 286.892 17.2364C286.396 17.2364 286 17.4004 285.702 17.7284C285.405 18.0564 285.26 18.4835 285.267 19.0098C285.26 19.5361 285.405 19.9633 285.702 20.2913C286.007 20.6193 286.4 20.7833 286.881 20.7833C287.232 20.7833 287.541 20.6955 287.807 20.5201C288.074 20.3447 288.254 20.0891 288.345 19.7535H290.027C289.905 20.5544 289.547 21.1799 288.952 21.6299C288.364 22.0723 287.674 22.2935 286.881 22.2935ZM295.997 15.8634V17.408H294.052V22.1562H292.416V17.408H290.483V15.8634H294.052H295.997ZM301.265 18.7581C302.02 18.9793 302.398 19.5056 302.398 20.337C302.398 20.9549 302.188 21.4125 301.769 21.71C301.349 22.0075 300.796 22.1562 300.109 22.1562H296.78V15.8634H299.823C300.525 15.8634 301.074 15.9816 301.471 16.2181C301.875 16.4545 302.077 16.8664 302.077 17.4538C302.077 17.7589 302.009 18.0106 301.871 18.2089C301.734 18.3996 301.532 18.5827 301.265 18.7581ZM300.43 17.7627C300.43 17.5491 300.373 17.3927 300.258 17.2936C300.151 17.1944 299.961 17.1448 299.686 17.1448H298.416V18.3577H299.686C299.961 18.3577 300.151 18.3119 300.258 18.2204C300.373 18.1212 300.43 17.9686 300.43 17.7627ZM299.984 20.8748C300.258 20.8748 300.453 20.8214 300.567 20.7146C300.682 20.6002 300.739 20.4248 300.739 20.1883C300.739 19.9595 300.678 19.7917 300.556 19.6849C300.441 19.5781 300.251 19.5247 299.984 19.5247H298.416V20.8748H299.984ZM304.159 16.6643C304.792 16.0388 305.567 15.7261 306.482 15.7261C307.397 15.7261 308.172 16.0388 308.805 16.6643C309.445 17.2898 309.766 18.0716 309.766 19.0098C309.766 19.9557 309.449 20.7413 308.816 21.3668C308.191 21.9846 307.413 22.2935 306.482 22.2935C305.559 22.2935 304.781 21.9808 304.148 21.3553C303.522 20.7299 303.21 19.948 303.21 19.0098C303.21 18.0716 303.526 17.2898 304.159 16.6643ZM307.638 17.7627C307.332 17.4423 306.947 17.2821 306.482 17.2821C306.017 17.2821 305.628 17.4423 305.315 17.7627C305.01 18.0831 304.857 18.4988 304.857 19.0098C304.857 19.5209 305.01 19.9366 305.315 20.257C305.628 20.5773 306.017 20.7375 306.482 20.7375C306.947 20.7375 307.332 20.5773 307.638 20.257C307.95 19.9366 308.107 19.5209 308.107 19.0098C308.107 18.4988 307.95 18.0831 307.638 17.7627ZM235.053 35.1562H232.97L230.396 32.4103V35.1562H228.76V32.4103L226.186 35.1562H224.103L227.158 31.8611L224.298 28.8634H226.38L228.76 31.4835V28.8634H230.396V31.4835L232.776 28.8634H234.858L231.998 31.8611L235.053 35.1562ZM238.318 28.7261C239.348 28.7261 240.16 29.0808 240.755 29.7902C241.357 30.4995 241.617 31.3805 241.533 32.4332H236.705C236.758 32.9213 236.933 33.2951 237.231 33.5544C237.528 33.8138 237.898 33.9434 238.341 33.9434C238.661 33.9434 238.947 33.8748 239.199 33.7375C239.451 33.5926 239.63 33.3981 239.737 33.154H241.43C241.209 33.8634 240.82 34.3973 240.263 34.7558C239.706 35.1143 239.069 35.2935 238.352 35.2935C237.376 35.2935 236.579 34.9846 235.961 34.3668C235.343 33.7489 235.034 32.9671 235.034 32.0213C235.034 31.0754 235.343 30.2898 235.961 29.6643C236.579 29.0388 237.364 28.7261 238.318 28.7261ZM238.306 30.0762C237.917 30.0762 237.593 30.183 237.334 30.3966C237.074 30.6025 236.891 30.8809 236.785 31.2318H239.794C239.702 30.8809 239.527 30.6025 239.267 30.3966C239.008 30.183 238.688 30.0762 238.306 30.0762ZM244.044 28.8634H248.701V35.1562H247.065V30.408H245.44L245.062 32.6963C244.788 34.4278 244.044 35.2935 242.831 35.2935C242.602 35.2935 242.347 35.2669 242.065 35.2135V33.7375C242.217 33.7604 242.358 33.7718 242.488 33.7718C242.77 33.7718 242.98 33.6879 243.117 33.5201C243.262 33.3447 243.373 33.0167 243.449 32.5361L244.044 28.8634ZM253.028 28.7261C254.058 28.7261 254.87 29.0808 255.465 29.7902C256.067 30.4995 256.327 31.3805 256.243 32.4332H251.415C251.468 32.9213 251.643 33.2951 251.941 33.5544C252.238 33.8138 252.608 33.9434 253.051 33.9434C253.371 33.9434 253.657 33.8748 253.909 33.7375C254.161 33.5926 254.34 33.3981 254.447 33.154H256.14C255.919 33.8634 255.53 34.3973 254.973 34.7558C254.416 35.1143 253.779 35.2935 253.062 35.2935C252.086 35.2935 251.289 34.9846 250.671 34.3668C250.053 33.7489 249.744 32.9671 249.744 32.0213C249.744 31.0754 250.053 30.2898 250.671 29.6643C251.289 29.0388 252.074 28.7261 253.028 28.7261ZM253.016 30.0762C252.627 30.0762 252.303 30.183 252.044 30.3966C251.784 30.6025 251.601 30.8809 251.495 31.2318H254.504C254.412 30.8809 254.237 30.6025 253.977 30.3966C253.718 30.183 253.398 30.0762 253.016 30.0762ZM261.865 31.8268C262.521 32.0937 262.849 32.601 262.849 33.3485C262.849 33.974 262.593 34.4545 262.082 34.7901C261.571 35.1257 260.888 35.2935 260.034 35.2935C258.241 35.2935 257.212 34.5422 256.945 33.0396H258.604C258.665 33.4057 258.806 33.665 259.027 33.8176C259.256 33.9701 259.58 34.0464 260 34.0464C260.793 34.0464 261.19 33.7756 261.19 33.2341C261.19 32.784 260.884 32.559 260.274 32.559H259.222V31.3004H260.103C260.431 31.3004 260.659 31.2509 260.789 31.1517C260.926 31.0525 260.995 30.8962 260.995 30.6826C260.995 30.1868 260.637 29.9389 259.92 29.9389C259.233 29.9389 258.836 30.2097 258.73 30.7512H257.071C257.322 29.4011 258.28 28.7261 259.942 28.7261C260.751 28.7261 261.403 28.8863 261.899 29.2066C262.395 29.527 262.643 29.9809 262.643 30.5682C262.643 31.1479 262.383 31.5674 261.865 31.8268ZM264.599 29.6643C265.232 29.0388 266.007 28.7261 266.922 28.7261C267.837 28.7261 268.611 29.0388 269.245 29.6643C269.885 30.2898 270.206 31.0716 270.206 32.0098C270.206 32.9557 269.889 33.7413 269.256 34.3668C268.63 34.9846 267.852 35.2935 266.922 35.2935C265.999 35.2935 265.221 34.9808 264.588 34.3553C263.962 33.7299 263.65 32.948 263.65 32.0098C263.65 31.0716 263.966 30.2898 264.599 29.6643ZM268.077 30.7627C267.772 30.4423 267.387 30.2821 266.922 30.2821C266.457 30.2821 266.068 30.4423 265.755 30.7627C265.45 31.0831 265.297 31.4988 265.297 32.0098C265.297 32.5209 265.45 32.9366 265.755 33.257C266.068 33.5773 266.457 33.7375 266.922 33.7375C267.387 33.7375 267.772 33.5773 268.077 33.257C268.39 32.9366 268.547 32.5209 268.547 32.0098C268.547 31.4988 268.39 31.0831 268.077 30.7627ZM274.83 29.0579C275.623 29.0579 276.283 29.3363 276.809 29.8931C277.343 30.45 277.61 31.1746 277.61 32.067C277.61 33.0281 277.305 33.8061 276.695 34.4011C276.092 34.9961 275.333 35.2935 274.418 35.2935C273.968 35.2935 273.548 35.2173 273.159 35.0647C272.77 34.9122 272.419 34.6795 272.107 34.3668C271.794 34.054 271.546 33.6345 271.363 33.1082C271.18 32.5743 271.088 31.9602 271.088 31.2661C271.088 30.4194 271.184 29.691 271.374 29.0808C271.565 28.4629 271.817 27.9709 272.13 27.6048C272.442 27.2387 272.85 26.9527 273.354 26.7467C273.865 26.5331 274.384 26.392 274.91 26.3234C275.444 26.2471 276.073 26.2089 276.798 26.2089V27.7421C276.233 27.7421 275.757 27.7612 275.368 27.7993C274.979 27.8298 274.612 27.8985 274.269 28.0053C273.934 28.1044 273.663 28.2455 273.457 28.4286C273.258 28.604 273.098 28.8367 272.976 29.1265C272.854 29.4164 272.778 29.7711 272.747 30.1906C272.953 29.8245 273.239 29.5461 273.606 29.3554C273.979 29.1571 274.387 29.0579 274.83 29.0579ZM274.349 33.8862C274.815 33.8862 275.2 33.7299 275.505 33.4171C275.818 33.0968 275.974 32.6772 275.974 32.1586C275.974 31.6475 275.821 31.2356 275.516 30.9229C275.219 30.6101 274.841 30.4538 274.384 30.4538C273.918 30.4538 273.525 30.614 273.205 30.9343C272.892 31.247 272.736 31.6551 272.736 32.1586C272.736 32.6772 272.889 33.0968 273.194 33.4171C273.506 33.7299 273.892 33.8862 274.349 33.8862ZM281.777 28.7261C282.807 28.7261 283.62 29.0808 284.214 29.7902C284.817 30.4995 285.076 31.3805 284.992 32.4332H280.164C280.218 32.9213 280.393 33.2951 280.69 33.5544C280.988 33.8138 281.358 33.9434 281.8 33.9434C282.121 33.9434 282.407 33.8748 282.658 33.7375C282.91 33.5926 283.089 33.3981 283.196 33.154H284.89C284.668 33.8634 284.279 34.3973 283.722 34.7558C283.166 35.1143 282.529 35.2935 281.812 35.2935C280.835 35.2935 280.038 34.9846 279.42 34.3668C278.803 33.7489 278.494 32.9671 278.494 32.0213C278.494 31.0754 278.803 30.2898 279.42 29.6643C280.038 29.0388 280.824 28.7261 281.777 28.7261ZM281.766 30.0762C281.377 30.0762 281.053 30.183 280.793 30.3966C280.534 30.6025 280.351 30.8809 280.244 31.2318H283.253C283.162 30.8809 282.986 30.6025 282.727 30.3966C282.468 30.183 282.147 30.0762 281.766 30.0762ZM291.039 28.8634V30.408H289.094V35.1562H287.458V30.408H285.524V28.8634H289.094H291.039ZM292.556 29.6643C293.189 29.0388 293.963 28.7261 294.878 28.7261C295.794 28.7261 296.568 29.0388 297.201 29.6643C297.842 30.2898 298.162 31.0716 298.162 32.0098C298.162 32.9557 297.845 33.7413 297.212 34.3668C296.587 34.9846 295.809 35.2935 294.878 35.2935C293.955 35.2935 293.177 34.9808 292.544 34.3553C291.919 33.7299 291.606 32.948 291.606 32.0098C291.606 31.0716 291.922 30.2898 292.556 29.6643ZM296.034 30.7627C295.729 30.4423 295.343 30.2821 294.878 30.2821C294.413 30.2821 294.024 30.4423 293.711 30.7627C293.406 31.0831 293.253 31.4988 293.253 32.0098C293.253 32.5209 293.406 32.9366 293.711 33.257C294.024 33.5773 294.413 33.7375 294.878 33.7375C295.343 33.7375 295.729 33.5773 296.034 33.257C296.347 32.9366 296.503 32.5209 296.503 32.0098C296.503 31.4988 296.347 31.0831 296.034 30.7627ZM303.656 28.8634H305.292V35.1562H303.656V32.7306H300.83V35.1562H299.193V28.8634H300.83V31.186H303.656V28.8634ZM310.949 28.8634H312.585V35.1562H310.949V32.7306H308.123V35.1562H306.487V28.8634H308.123V31.186H310.949V28.8634ZM317.018 30.7055C317.674 30.7055 318.22 30.8771 318.655 31.2204C319.089 31.5636 319.307 32.1166 319.307 32.8794C319.307 33.276 319.238 33.6269 319.101 33.932C318.971 34.2295 318.792 34.4659 318.563 34.6414C318.342 34.8168 318.094 34.9465 317.819 35.0304C317.552 35.1143 317.266 35.1562 316.961 35.1562H313.781V28.8634H315.417V30.7055H317.018ZM320.153 28.8634H321.79V35.1562H320.153V28.8634ZM316.904 33.6002C317.4 33.6002 317.648 33.3599 317.648 32.8794C317.648 32.3912 317.404 32.1471 316.916 32.1471H315.417V33.6002H316.904ZM329.014 35.1562H327.069L325.776 33.1769L324.552 35.1562H322.584L324.804 31.9068L322.699 28.8634H324.644L325.834 30.7055L326.944 28.8634H328.911L326.806 31.9526L329.014 35.1562ZM230.808 48.1562H228.714L226.14 45.4103V48.1562H224.504V41.8634H226.14V44.4835L228.531 41.8634H230.614L227.742 44.8611L230.808 48.1562ZM231.648 42.6643C232.282 42.0388 233.056 41.7261 233.971 41.7261C234.886 41.7261 235.661 42.0388 236.294 42.6643C236.934 43.2898 237.255 44.0716 237.255 45.0098C237.255 45.9557 236.938 46.7413 236.305 47.3668C235.68 47.9846 234.902 48.2935 233.971 48.2935C233.048 48.2935 232.27 47.9808 231.637 47.3553C231.012 46.7299 230.699 45.948 230.699 45.0098C230.699 44.0716 231.015 43.2898 231.648 42.6643ZM235.127 43.7627C234.822 43.4423 234.436 43.2821 233.971 43.2821C233.506 43.2821 233.117 43.4423 232.804 43.7627C232.499 44.0831 232.346 44.4988 232.346 45.0098C232.346 45.5209 232.499 45.9366 232.804 46.257C233.117 46.5773 233.506 46.7375 233.971 46.7375C234.436 46.7375 234.822 46.5773 235.127 46.257C235.439 45.9366 235.596 45.5209 235.596 45.0098C235.596 44.4988 235.439 44.0831 235.127 43.7627ZM242.749 41.8634H244.385V48.1562H242.749V45.7306H239.922V48.1562H238.286V41.8634H239.922V44.186H242.749V41.8634ZM248.703 48.2935C247.765 48.2935 246.983 47.9808 246.358 47.3553C245.74 46.7299 245.431 45.948 245.431 45.0098C245.431 44.0716 245.74 43.2898 246.358 42.6643C246.983 42.0388 247.769 41.7261 248.715 41.7261C249.508 41.7261 250.198 41.9549 250.786 42.4126C251.381 42.8626 251.735 43.4767 251.85 44.2547H250.168C250.076 43.9267 249.897 43.675 249.63 43.4995C249.371 43.3241 249.066 43.2364 248.715 43.2364C248.219 43.2364 247.822 43.4004 247.525 43.7284C247.227 44.0564 247.083 44.4835 247.09 45.0098C247.083 45.5361 247.227 45.9633 247.525 46.2913C247.83 46.6193 248.223 46.7833 248.703 46.7833C249.054 46.7833 249.363 46.6955 249.63 46.5201C249.897 46.3447 250.076 46.0891 250.168 45.7535H251.85C251.728 46.5544 251.369 47.1799 250.774 47.6299C250.187 48.0723 249.497 48.2935 248.703 48.2935ZM257.82 41.8634V43.408H255.875V48.1562H254.239V43.408H252.305V41.8634H255.875H257.82ZM262.287 41.7261C263.103 41.7261 263.786 42.035 264.335 42.6529C264.884 43.2631 265.159 44.0487 265.159 45.0098C265.159 45.9709 264.884 46.7604 264.335 47.3782C263.793 47.9884 263.111 48.2935 262.287 48.2935C261.455 48.2935 260.792 47.9656 260.296 47.3096V51.0166H258.66V41.8634H260.296V42.7444C260.784 42.0655 261.448 41.7261 262.287 41.7261ZM261.909 46.7375C262.367 46.7375 262.745 46.5773 263.042 46.257C263.347 45.9366 263.5 45.5209 263.5 45.0098C263.5 44.4988 263.351 44.0831 263.053 43.7627C262.756 43.4423 262.375 43.2821 261.909 43.2821C261.444 43.2821 261.059 43.4423 260.754 43.7627C260.449 44.0831 260.296 44.4988 260.296 45.0098C260.296 45.5209 260.449 45.9366 260.754 46.257C261.059 46.5773 261.444 46.7375 261.909 46.7375ZM270.135 41.8634H271.886L267.789 51.0166H266.05L267.698 47.321L265.272 41.8634H267.011L268.568 45.5476L270.135 41.8634ZM278.969 48.1562H276.875L274.301 45.4103V48.1562H272.665V41.8634H274.301V44.4835L276.692 41.8634H278.774L275.903 44.8611L278.969 48.1562ZM285.558 46.6116H286.702V49.7466H285.066V48.1562H281.382H279.746V41.8634H281.382V46.6116H283.922V41.8634H285.558V46.6116ZM291.617 41.8634H293.493V48.1562H291.857V45.9251L291.96 44.0602L289.363 48.1562H287.475V41.8634H289.111V44.0945L289.031 45.9366L291.617 41.8634ZM299.05 40.5819C298.676 40.9099 298.226 41.0739 297.7 41.0739C297.173 41.0739 296.72 40.9099 296.338 40.5819C295.964 40.2539 295.778 39.8115 295.778 39.2547V38.9458H297.07V39.2089C297.07 39.3996 297.128 39.5522 297.242 39.6666C297.356 39.781 297.509 39.8382 297.7 39.8382C297.89 39.8382 298.043 39.781 298.157 39.6666C298.272 39.5522 298.329 39.3996 298.329 39.2089V38.9458H299.61V39.2547C299.61 39.8115 299.424 40.2539 299.05 40.5819ZM298.832 41.8634H300.709V48.1562H299.073V45.9251L299.176 44.0602L296.578 48.1562H294.691V41.8634H296.327V44.0945L296.247 45.9366L298.832 41.8634Z" fill="#7A8396"/>
<g opacity="0.6">
<path d="M28.4023 52.0152L55.5228 41.2988V45.8073L28.4023 56.5238V52.0152Z" fill="#7A8396"/>
<path d="M28.4037 52.0145L55.5242 41.2981L27.1205 33.9805L0 44.6969L28.4037 52.0145Z" fill="#9A9EB0"/>
<g style="mix-blend-mode:multiply">
<mask id="mask0_422_2684" style="mask-type:alpha" maskUnits="userSpaceOnUse" x="0" y="33" width="56" height="20">
<path d="M28.4037 52.0145L55.5242 41.2981L27.1205 33.9805L0 44.6969L28.4037 52.0145Z" fill="#9A9EB0"/>
</mask>
<g mask="url(#mask0_422_2684)">
<g style="mix-blend-mode:multiply" filter="url(#filter0_f_422_2684)">
<path d="M28.2763 48.3384L49.8744 39.8065L27.2544 33.9805L5.65625 42.5124L28.2763 48.3384Z" fill="#9A9EB0"/>
</g>
</g>
</g>
<path d="M28.4037 52.0149L0 44.6973V49.2058L28.4037 56.5235V52.0149Z" fill="#BCC3D3"/>
</g>
<g opacity="0.7">
<path d="M28.4023 43.9312L55.5228 33.2148V37.7234L28.4023 48.4398V43.9312Z" fill="#7A8396"/>
<path d="M28.4037 43.9306L55.5242 33.2142L27.1205 25.8965L0 36.6129L28.4037 43.9306Z" fill="#9A9EB0"/>
<g style="mix-blend-mode:multiply">
<mask id="mask1_422_2684" style="mask-type:alpha" maskUnits="userSpaceOnUse" x="0" y="25" width="56" height="19">
<path d="M28.4037 43.9306L55.5242 33.2142L27.1205 25.8965L0 36.6129L28.4037 43.9306Z" fill="#9A9EB0"/>
</mask>
<g mask="url(#mask1_422_2684)">
<g style="mix-blend-mode:multiply" filter="url(#filter1_f_422_2684)">
<path d="M28.2763 40.2544L49.8744 31.7225L27.2544 25.8965L5.65625 34.4284L28.2763 40.2544Z" fill="#9A9EB0"/>
</g>
</g>
</g>
<path d="M28.4037 43.931L0 36.6133V41.1218L28.4037 48.4395V43.931Z" fill="#BCC3D3"/>
</g>
<g opacity="0.8">
<path d="M28.4023 35.5484L55.5228 24.832V29.3406L28.4023 40.057V35.5484Z" fill="#7A8396"/>
<path d="M28.4037 35.5478L55.5242 24.8313L27.1205 17.5137L0 28.2301L28.4037 35.5478Z" fill="#9A9EB0"/>
<g style="mix-blend-mode:multiply">
<mask id="mask2_422_2684" style="mask-type:alpha" maskUnits="userSpaceOnUse" x="0" y="17" width="56" height="19">
<path d="M28.4037 35.5478L55.5242 24.8313L27.1205 17.5137L0 28.2301L28.4037 35.5478Z" fill="#9A9EB0"/>
</mask>
<g mask="url(#mask2_422_2684)">
<g style="mix-blend-mode:multiply" filter="url(#filter2_f_422_2684)">
<path d="M28.2763 31.8716L49.8744 23.3397L27.2544 17.5137L5.65625 26.0456L28.2763 31.8716Z" fill="#9A9EB0"/>
</g>
</g>
</g>
<path d="M28.4037 35.5481L0 28.2305V32.739L28.4037 40.0567V35.5481Z" fill="#BCC3D3"/>
</g>
<g opacity="0.9">
<path d="M28.4023 27.1656L55.5228 16.4492V20.9577L28.4023 31.6741V27.1656Z" fill="#7A8396"/>
<path d="M28.4037 27.1659L55.5242 16.4495L27.1205 9.13184L0 19.8482L28.4037 27.1659Z" fill="#9A9EB0"/>
<g style="mix-blend-mode:multiply">
<mask id="mask3_422_2684" style="mask-type:alpha" maskUnits="userSpaceOnUse" x="0" y="9" width="56" height="19">
<path d="M28.4037 27.1659L55.5242 16.4495L27.1205 9.13184L0 19.8482L28.4037 27.1659Z" fill="#9A9EB0"/>
</mask>
<g mask="url(#mask3_422_2684)">
<g style="mix-blend-mode:multiply" filter="url(#filter3_f_422_2684)">
<path d="M28.2763 23.4897L49.8744 14.9578L27.2544 9.13184L5.65625 17.6637L28.2763 23.4897Z" fill="#9A9EB0"/>
</g>
</g>
</g>
<path d="M28.4037 27.1663L0 19.8486V24.3572L28.4037 31.6748V27.1663Z" fill="#BCC3D3"/>
</g>
<path d="M28.4023 18.7848L55.5228 8.06836V12.5769L28.4023 23.2933V18.7848Z" fill="#7A8396"/>
<path d="M28.4037 18.7841L55.5242 8.06768L27.1205 0.75L0 11.4664L28.4037 18.7841Z" fill="#9A9EB0"/>
<path d="M28.4037 18.7845L0 11.4668V15.9753L28.4037 23.293V18.7845Z" fill="#BCC3D3"/>
<defs>
<filter id="filter0_f_422_2684" x="1.66564" y="29.9899" width="52.1995" height="22.3386" filterUnits="userSpaceOnUse" color-interpolation-filters="sRGB">
<feFlood flood-opacity="0" result="BackgroundImageFix"/>
<feBlend mode="normal" in="SourceGraphic" in2="BackgroundImageFix" result="shape"/>
<feGaussianBlur stdDeviation="1.99531" result="effect1_foregroundBlur_422_2684"/>
</filter>
<filter id="filter1_f_422_2684" x="1.66564" y="21.9059" width="52.1995" height="22.3386" filterUnits="userSpaceOnUse" color-interpolation-filters="sRGB">
<feFlood flood-opacity="0" result="BackgroundImageFix"/>
<feBlend mode="normal" in="SourceGraphic" in2="BackgroundImageFix" result="shape"/>
<feGaussianBlur stdDeviation="1.99531" result="effect1_foregroundBlur_422_2684"/>
</filter>
<filter id="filter2_f_422_2684" x="1.66564" y="13.5231" width="52.1995" height="22.3386" filterUnits="userSpaceOnUse" color-interpolation-filters="sRGB">
<feFlood flood-opacity="0" result="BackgroundImageFix"/>
<feBlend mode="normal" in="SourceGraphic" in2="BackgroundImageFix" result="shape"/>
<feGaussianBlur stdDeviation="1.99531" result="effect1_foregroundBlur_422_2684"/>
</filter>
<filter id="filter3_f_422_2684" x="1.66564" y="5.14122" width="52.1995" height="22.3386" filterUnits="userSpaceOnUse" color-interpolation-filters="sRGB">
<feFlood flood-opacity="0" result="BackgroundImageFix"/>
<feBlend mode="normal" in="SourceGraphic" in2="BackgroundImageFix" result="shape"/>
<feGaussianBlur stdDeviation="1.99531" result="effect1_foregroundBlur_422_2684"/>
</filter>
</defs>
</svg>
