<svg width="25" height="24" viewBox="0 0 25 24" fill="none" xmlns="http://www.w3.org/2000/svg">
<rect width="24" height="24" transform="translate(0.5)" fill="white"/>
<path d="M12.5 22H21.5C22.0523 22 22.5 21.5523 22.5 21V3C22.5 2.44772 22.0523 2 21.5 2H12.5M12.5 22H3.5C2.94772 22 2.5 21.5523 2.5 21V3C2.5 2.44772 2.94772 2 3.5 2H12.5M12.5 22V2M15 11H20M15 14.5H20M15 18H18.5M5 11H10M5 14.5H10M5 18H8.5M18.5 6C18.5 6.55228 18.0523 7 17.5 7C16.9477 7 16.5 6.55228 16.5 6C16.5 5.44772 16.9477 5 17.5 5C18.0523 5 18.5 5.44772 18.5 6ZM8.5 6C8.5 6.55228 8.05228 7 7.5 7C6.94772 7 6.5 6.55228 6.5 6C6.5 5.44772 6.94772 5 7.5 5C8.05228 5 8.5 5.44772 8.5 6Z" stroke="#FF7A00" stroke-width="2"/>
</svg>
