<svg width="83" height="82" viewBox="0 0 83 82" fill="none" xmlns="http://www.w3.org/2000/svg">
<path d="M31.3401 26.9076C23.5862 26.1076 15.4632 28.5691 9.55547 34.4768C5.80162 38.1076 3.46316 42.5999 2.35547 47.2768C4.50931 49.246 6.7247 51.2768 8.87855 53.3076L31.3401 26.9076Z" fill="" stroke="white" stroke-width="4" stroke-linejoin="round"/>
<path d="M55.6473 49.7998L28.3242 72.3844C30.6627 74.7844 32.9396 77.1844 35.155 79.5844C39.8934 78.5383 44.4473 76.1998 48.1396 72.5075C54.4165 66.3536 56.9396 57.8613 55.6473 49.7998Z" fill="" stroke="white" stroke-width="4" stroke-linejoin="round"/>
<path d="M16.2617 45.4921L36.2002 65.1844L65.4925 40.9383C77.1233 31.3383 81.9233 16.6306 79.4002 2.9075C65.431 0.384423 50.6002 5.12288 40.8156 16.569L16.2617 45.4921Z" fill="" stroke="white" stroke-width="4" stroke-linejoin="round"/>
<path d="M19.3999 71.0923C16.8769 73.6153 4.07687 77.1846 4.07687 77.1846C3.89225 77.3692 7.6461 64.5692 10.2307 62.0461C12.7538 59.523 16.8769 59.523 19.4615 62.0461C21.923 64.5692 21.923 68.6307 19.3999 71.0923Z" fill="" stroke="white" stroke-width="4" stroke-linejoin="round"/>
<path d="M70.1108 12.0769C73.2493 15.1538 75.957 18.4154 78.2954 21.8C80.1416 15.7077 80.5723 9.18459 79.4031 2.90767C73.0031 1.73844 66.4185 2.10767 60.2031 3.95382C63.6493 6.29229 66.9724 8.99998 70.1108 12.0769Z" fill="" stroke="white" stroke-width="4" stroke-linejoin="round"/>
<path d="M65.0648 29.7384C61.4956 33.2461 55.711 33.2461 52.1418 29.7384C48.5725 26.2307 48.5725 20.5076 52.1418 16.9384C55.711 13.4307 61.4956 13.4307 65.0648 16.9384C68.6341 20.5076 68.6341 26.2307 65.0648 29.7384Z" fill="" stroke="white" stroke-width="4" stroke-linejoin="round"/>
<path d="M21.2461 38.292L43.523 60.2612" stroke="white" stroke-width="4" stroke-linejoin="round"/>
</svg>
