<svg width="82" height="82" viewBox="0 0 82 82" fill="none" xmlns="http://www.w3.org/2000/svg">
<path d="M40.6334 79.7807C19.4139 79.7807 2.21875 62.4027 2.21875 41.0002C2.21875 19.5978 19.4139 2.21973 40.6334 2.21973C61.8529 2.21973 79.048 19.5978 79.048 41.0002" stroke="#FF7A00" stroke-width="4" stroke-linejoin="round"/>
<path d="M79.0469 41C79.0469 41.4268 79.0469 41.7927 79.0469 42.2195" stroke="#FF7A00" stroke-width="4" stroke-linejoin="round"/>
<path d="M78.8645 44.7197C77.0962 63.5612 61.9133 78.4392 43.1328 79.6588" stroke="#FF7A00" stroke-width="4" stroke-linejoin="round" stroke-dasharray="3 3"/>
<path d="M41.8523 79.7803C41.4255 79.7803 41.0596 79.7803 40.6328 79.7803" stroke="#FF7A00" stroke-width="4" stroke-linejoin="round"/>
<path d="M61.0009 31.183L53.5009 23.6221L34.1716 43.1343L28.3789 37.2806L20.8789 44.8416L34.1106 58.3782L61.0009 31.183Z" stroke="#FF7A00" stroke-width="4" stroke-linejoin="round"/>
</svg>
