<svg width="27" height="33" viewBox="0 0 27 33" fill="none" xmlns="http://www.w3.org/2000/svg">
<path d="M14.8278 30.7686L15.9314 31.7846L14.8278 30.7686ZM12.5055 30.7686L11.402 31.7846L12.5055 30.7686ZM23.8333 13.6667C23.8333 14.6371 23.4681 15.9167 22.7507 17.4345C22.0453 18.9268 21.0595 20.5259 19.9581 22.1002C17.7561 25.2475 15.1808 28.1706 13.7243 29.7526L15.9314 31.7846C17.4257 30.1615 20.1031 27.1261 22.4162 23.82C23.5723 22.1675 24.6596 20.4162 25.463 18.7165C26.2542 17.0424 26.8333 15.2887 26.8333 13.6667H23.8333ZM13.609 29.7526C12.1525 28.1706 9.5772 25.2475 7.37524 22.1002C6.27384 20.5259 5.288 18.9268 4.58266 17.4345C3.86524 15.9167 3.5 14.6371 3.5 13.6667H0.5C0.5 15.2887 1.07909 17.0424 1.87038 18.7165C2.67375 20.4162 3.761 22.1675 4.91712 23.82C7.23019 27.1261 9.90764 30.1615 11.402 31.7846L13.609 29.7526ZM3.5 13.6667C3.5 8.05177 8.05177 3.5 13.6667 3.5V0.5C6.39492 0.5 0.5 6.39492 0.5 13.6667H3.5ZM13.6667 3.5C19.2816 3.5 23.8333 8.05177 23.8333 13.6667H26.8333C26.8333 6.39492 20.9384 0.5 13.6667 0.5V3.5ZM13.7243 29.7526C13.7091 29.7691 13.6975 29.7754 13.6909 29.7783C13.6831 29.7816 13.675 29.7833 13.6667 29.7833C13.6583 29.7833 13.6502 29.7816 13.6425 29.7783C13.6358 29.7754 13.6242 29.7691 13.609 29.7526L11.402 31.7846C12.628 33.1162 14.7054 33.1162 15.9314 31.7846L13.7243 29.7526ZM17.1667 13.6667C17.1667 15.5997 15.5997 17.1667 13.6667 17.1667V20.1667C17.2565 20.1667 20.1667 17.2565 20.1667 13.6667H17.1667ZM13.6667 17.1667C11.7337 17.1667 10.1667 15.5997 10.1667 13.6667H7.16667C7.16667 17.2565 10.0768 20.1667 13.6667 20.1667V17.1667ZM10.1667 13.6667C10.1667 11.7337 11.7337 10.1667 13.6667 10.1667V7.16667C10.0768 7.16667 7.16667 10.0768 7.16667 13.6667H10.1667ZM13.6667 10.1667C15.5997 10.1667 17.1667 11.7337 17.1667 13.6667H20.1667C20.1667 10.0768 17.2565 7.16667 13.6667 7.16667V10.1667Z" fill="#FF7A00"/>
</svg>
