<svg width="64" height="81" viewBox="0 0 64 81" fill="none" xmlns="http://www.w3.org/2000/svg">
<path d="M62.9096 77.4306L53.925 76.8152C53.4327 74.1075 52.4481 71.6459 51.0327 69.369L55.8942 63.6459L50.1096 57.8613L44.5096 62.5998C42.2942 61.1229 39.8327 60.0152 37.1865 59.3998L36.5712 51.8921H28.3865L27.7712 59.1536C25.0635 59.6459 22.6019 60.6306 20.325 62.0459L14.6019 57.1844L8.81731 62.969L13.5558 68.569C12.0788 70.7229 10.9712 73.1844 10.3558 75.8306L1.125 76.4459" stroke="#FF7A00" stroke-width="4" stroke-linejoin="round"/>
<path d="M16.2617 80.9999C16.2617 72.323 23.2771 65.3076 31.954 65.3076" stroke="#FF7A00" stroke-width="4" stroke-linejoin="round"/>
<path d="M22.9102 80.9998C22.9102 75.9536 26.9717 71.8921 32.0179 71.8921C37.064 71.8921 41.1255 75.9536 41.1255 80.9998" stroke="#FF7A00" stroke-width="4" stroke-linejoin="round"/>
<path d="M61.1836 70.415V40.1381V22.4766" stroke="#FF7A00" stroke-width="4" stroke-linejoin="round"/>
<path d="M40.939 2.23047H2.78516V19.3997V40.1382V70.4151" stroke="#FF7A00" stroke-width="4" stroke-linejoin="round"/>
<path d="M45.8633 17.8H58.7864L45.8633 4.93848V17.8Z" stroke="#FF7A00" stroke-width="4" stroke-linejoin="round"/>
<path d="M11.4648 17.9229H32.9418" stroke="#FF7A00" stroke-width="4" stroke-linejoin="round"/>
<path d="M11.4648 44.4458H28.511" stroke="#FF7A00" stroke-width="4" stroke-linejoin="round" stroke-dasharray="4 4"/>
<path d="M11.4648 26.7842H50.9725" stroke="#FF7A00" stroke-width="4" stroke-linejoin="round"/>
<path d="M11.4648 35.6455H50.9725" stroke="#FF7A00" stroke-width="4" stroke-linejoin="round"/>
</svg>
