<svg width="93" height="27" viewBox="0 0 93 27" fill="none" xmlns="http://www.w3.org/2000/svg">
<path d="M14.911 11.3056C17.0198 12.2642 18.0742 13.9789 18.0742 16.4499C18.0742 18.6226 17.2967 20.3267 15.7417 21.5622C14.208 22.7977 12.0992 23.4154 9.41522 23.4154C6.75255 23.4154 4.56917 22.7657 2.86506 21.4663C1.16095 20.1457 0.244996 18.2498 0.117188 15.7789H5.61293C5.74074 16.6735 6.09221 17.3126 6.66735 17.696C7.26379 18.0581 8.13714 18.2392 9.28741 18.2392C10.5016 18.2392 11.3536 18.0475 11.8436 17.6641C12.3335 17.2593 12.5785 16.6735 12.5785 15.9067C12.5785 15.2464 12.3548 14.7777 11.9075 14.5008C11.4814 14.2026 10.704 14.0535 9.57498 14.0535H6.47564V9.32458H9.06375C10.001 9.32458 10.7146 9.20743 11.2045 8.97311C11.6945 8.7175 11.9394 8.25952 11.9394 7.59918C11.9394 6.12938 10.9276 5.39449 8.90399 5.39449C7.94543 5.39449 7.22118 5.5649 6.73125 5.90572C6.24132 6.22524 5.9218 6.80037 5.77269 7.63113H0.276948C0.426057 5.26668 1.29941 3.44542 2.89701 2.16734C4.51591 0.867953 6.57149 0.218262 9.06375 0.218262C11.5773 0.218262 13.6009 0.846652 15.1346 2.10343C16.6683 3.33891 17.4352 4.92586 17.4352 6.86428C17.4352 7.80154 17.2009 8.66424 16.7322 9.45239C16.2849 10.2405 15.6778 10.8583 14.911 11.3056Z" fill="white"/>
<path d="M41.2342 17.8238H44.4294V26.3136H38.9975V23H25.4179V26.3136H19.9861V17.8238H23.1174C23.4795 17.4191 23.7564 16.6629 23.9481 15.5552L26.3126 0.633638H41.2342V17.8238ZM29.2841 16.0984C29.2202 16.567 29.1031 17.1422 28.9327 17.8238H35.8023V5.80986H30.9137L29.2841 16.0984Z" fill="white"/>
<path d="M58.2783 23.4154C54.934 23.4154 52.1648 22.3077 49.9708 20.0924C47.7768 17.8771 46.6797 15.1185 46.6797 11.8168C46.6797 8.51513 47.7768 5.75661 49.9708 3.54127C52.1648 1.32593 54.934 0.218262 58.2783 0.218262C60.9836 0.218262 63.3161 0.98511 65.2758 2.51881C67.2568 4.0525 68.5562 6.05483 69.174 8.52578H63.3587C62.9114 7.54592 62.2404 6.77907 61.3457 6.22524C60.4724 5.6714 59.4499 5.39449 58.2783 5.39449C56.4464 5.39449 54.966 5.99092 53.837 7.1838C52.7293 8.37667 52.1755 9.92102 52.1755 11.8168C52.1755 13.7127 52.7293 15.257 53.837 16.4499C54.966 17.6428 56.4464 18.2392 58.2783 18.2392C59.4499 18.2392 60.4724 17.9623 61.3457 17.4084C62.2404 16.8546 62.9114 16.0878 63.3587 15.1079H69.174C68.5562 17.5789 67.2568 19.5812 65.2758 21.1149C63.3161 22.6486 60.9836 23.4154 58.2783 23.4154Z" fill="white"/>
<path d="M92.2171 23H85.4433L77.9665 12.8713V23H72.5347V0.633638H77.9665V10.1553L84.964 0.633638H91.642L83.59 11.4334L92.2171 23Z" fill="white"/>
</svg>
